<?xml version="1.0" standalone="no"?>
<!DOCTYPE svg PUBLIC "-//W3C//DTD SVG 20010904//EN"
 "http://www.w3.org/TR/2001/REC-SVG-20010904/DTD/svg10.dtd">
<svg version="1.0" xmlns="http://www.w3.org/2000/svg"
 width="300.000000pt" height="300.000000pt" viewBox="0 0 300.000000 300.000000"
 preserveAspectRatio="xMidYMid meet">
<metadata>
Created by potrace 1.14, written by Peter Selinger 2001-2017
</metadata>
<g transform="translate(0.000000,300.000000) scale(0.100000,-0.100000)"
fill="#000000" stroke="none">
<path d="M1505 2450 c-3 -5 3 -10 14 -10 12 0 21 5 21 10 0 6 -6 10 -14 10 -8
0 -18 -4 -21 -10z"/>
<path d="M1563 2447 c0 -7 9 -14 19 -14 16 -2 16 0 4 13 -18 17 -23 18 -23 1z"/>
<path d="M1420 2438 c0 -12 38 -10 45 2 4 6 -5 9 -19 8 -15 -1 -26 -6 -26 -10z"/>
<path d="M1622 2408 c-11 -10 -164 -16 -194 -7 -17 4 -28 3 -30 -3 -2 -6 -35
-12 -73 -14 -39 -1 -76 -3 -82 -3 -7 -1 -13 -5 -13 -11 0 -5 8 -7 18 -4 14 5
14 4 2 -5 -8 -5 -31 -13 -52 -16 -20 -4 -39 -13 -42 -20 -3 -9 -17 -12 -40
-10 -20 2 -36 -1 -36 -7 0 -13 -26 -38 -40 -38 -6 0 -8 -4 -5 -10 3 -5 0 -7
-9 -4 -21 8 -56 -14 -56 -35 0 -10 -7 -24 -15 -31 -9 -8 -15 -8 -15 -2 0 6 6
12 13 15 6 2 9 8 4 12 -15 17 -122 -108 -160 -188 -83 -170 -113 -256 -122
-347 -2 -14 -7 -47 -11 -75 -22 -143 23 -328 113 -460 60 -89 189 -214 268
-262 113 -68 224 -105 355 -119 36 -4 72 -8 80 -9 8 -1 19 0 23 2 5 3 35 7 67
9 68 5 181 41 245 78 54 32 180 133 216 173 14 16 34 44 45 63 10 19 23 38 28
41 4 4 3 10 -3 13 -10 7 -77 -54 -133 -121 -36 -44 -174 -135 -250 -166 -87
-34 -220 -49 -308 -33 -107 19 -113 20 -168 40 -24 8 -50 22 -58 31 -9 8 -23
15 -32 15 -10 0 -29 11 -42 23 -14 13 -37 27 -51 30 -40 10 -203 177 -187 192
2 2 21 -21 43 -51 22 -30 47 -57 57 -60 10 -3 18 -9 18 -13 0 -5 13 -11 28
-14 15 -3 55 -25 88 -49 33 -24 75 -51 94 -60 47 -23 140 -59 140 -54 0 3 15
0 33 -5 33 -10 166 -13 224 -5 52 8 129 33 185 61 58 29 158 101 158 114 0 4
11 14 25 21 13 7 22 17 19 21 -2 4 9 18 26 30 16 13 30 29 30 36 0 7 4 13 10
13 5 0 20 16 32 35 13 19 30 35 38 35 12 -1 12 -3 -2 -14 -23 -17 -23 -32 -1
-40 10 -4 14 -4 11 0 -4 4 -3 14 2 24 12 23 1 67 -12 48 -7 -9 -8 -8 -4 5 3
10 6 28 6 39 0 15 5 18 16 14 14 -5 15 -4 5 8 -7 8 -11 19 -8 23 25 40 27 293
2 358 -4 11 -13 37 -21 59 -8 21 -29 60 -46 85 -29 43 -29 44 -4 19 33 -34 39
-35 31 -5 -5 20 -5 20 6 4 6 -11 12 -25 13 -32 1 -7 7 -19 12 -26 17 -22 46
-189 48 -274 1 -27 5 -56 9 -62 5 -8 4 -13 -2 -13 -6 0 -11 -8 -11 -17 0 -33
23 5 27 44 11 114 9 152 -10 228 -3 11 -10 39 -15 62 -5 24 -24 66 -42 93 -18
28 -30 53 -27 56 7 8 67 -78 67 -97 0 -9 7 -20 16 -23 12 -5 14 -9 5 -20 -8
-10 -6 -17 8 -30 12 -11 17 -25 13 -38 -3 -14 -1 -19 6 -14 7 4 12 23 12 42 0
19 -4 33 -9 29 -5 -3 -12 -1 -16 5 -3 5 -2 10 3 10 5 0 8 13 7 30 -2 29 -18
58 -43 73 -7 5 -10 12 -7 17 9 15 -127 150 -203 200 -42 28 -82 50 -89 50 -7
0 -13 5 -13 10 0 15 60 -13 127 -58 84 -58 204 -178 253 -252 8 -12 22 -29 30
-38 8 -9 15 -19 15 -23 0 -5 7 -14 16 -21 10 -8 21 -44 29 -92 9 -53 16 -73
20 -60 4 10 4 28 0 39 -3 11 -8 40 -9 65 -3 53 -43 144 -97 219 -49 66 -182
201 -200 201 -7 0 -17 6 -21 14 -4 7 -27 25 -50 40 -58 36 -55 42 5 9 119 -66
258 -181 307 -255 36 -53 66 -88 77 -88 11 0 -22 70 -45 97 -13 14 -17 28 -12
43 5 15 4 20 -4 16 -6 -4 -11 -2 -11 4 0 17 -159 177 -194 195 -17 9 -49 29
-71 45 -22 16 -45 27 -52 25 -7 -2 -15 0 -19 6 -3 6 -16 9 -27 8 -33 -2 -87
12 -81 22 3 5 2 9 -3 10 -101 9 -137 12 -180 13 -52 1 -69 10 -35 18 22 5 168
1 207 -7 17 -3 53 -7 81 -8 46 -3 111 -22 124 -37 3 -3 22 -16 42 -30 20 -13
35 -27 33 -31 -2 -3 14 -16 35 -28 22 -12 40 -25 40 -29 0 -4 12 -20 26 -37
29 -35 16 -5 -18 41 -30 41 -117 111 -182 148 -28 15 -90 38 -139 50 -48 12
-85 24 -83 27 3 3 -8 4 -25 3 -17 -1 -32 3 -35 11 -5 13 -98 16 -112 3z m176
-55 c15 -6 -10 -8 -70 -7 -111 2 -178 -5 -178 -18 0 -5 4 -7 9 -3 5 3 12 1 16
-5 4 -6 -5 -10 -20 -10 -85 0 -314 -74 -395 -127 -19 -13 -44 -29 -54 -36 -59
-37 -158 -160 -192 -237 -51 -113 -76 -222 -80 -351 -3 -86 11 -174 41 -254
14 -36 14 -38 0 -20 -36 46 -86 257 -64 271 13 8 11 58 -4 73 -10 11 -9 12 2
6 11 -6 13 -2 9 18 -3 15 -2 24 2 22 5 -3 13 21 19 53 31 170 74 254 192 371
95 95 162 137 272 171 23 7 37 18 37 28 0 14 2 14 9 3 7 -11 17 -11 60 -1 45
11 50 14 35 25 -18 13 1 18 121 31 28 3 51 7 53 8 6 6 160 -4 180 -11z m-693
-83 c-3 -5 -14 -10 -23 -9 -14 0 -13 2 3 9 27 11 27 11 20 0z m730 -40 c39
-12 75 -27 80 -32 12 -12 -10 -9 -100 16 -83 23 -261 20 -408 -8 -76 -14 -148
-46 -241 -108 -33 -22 -54 -32 -46 -23 30 36 142 104 224 136 48 20 97 26 259
34 44 2 81 6 83 8 9 9 82 -3 149 -23z m-785 1 c0 -3 -24 -28 -52 -56 -70 -67
-132 -137 -134 -150 0 -5 -2 -16 -2 -22 -1 -7 -7 -12 -13 -10 -6 1 -19 -22
-29 -50 -9 -29 -15 -53 -13 -53 2 0 -2 -10 -9 -22 -7 -13 -14 -30 -15 -38 -2
-19 -7 -40 -26 -112 -8 -32 -12 -58 -9 -58 4 0 7 -26 8 -58 2 -173 18 -251 74
-356 36 -69 35 -95 -2 -45 -43 58 -61 89 -50 89 6 0 3 18 -5 43 -36 99 -58
233 -42 243 5 3 9 20 9 37 0 25 -3 29 -10 17 -7 -10 -8 2 -4 40 4 30 11 58 17
62 7 4 12 26 12 50 2 58 33 160 47 151 7 -4 9 0 5 9 -10 27 53 130 132 214 42
45 84 81 94 80 9 0 17 -3 17 -5z m527 -37 c-3 -3 -20 -7 -39 -10 -21 -2 -27
-1 -15 4 22 9 62 13 54 6z m-687 -63 c0 -5 -7 -12 -16 -15 -14 -5 -15 -4 -4 9
14 17 20 19 20 6z m847 -75 c75 -16 259 -101 273 -126 7 -13 3 -16 -18 -15
-18 0 -26 6 -24 15 2 8 0 12 -4 8 -4 -4 -24 6 -44 22 -21 17 -44 30 -51 30 -8
0 -25 9 -39 20 -14 11 -34 20 -45 20 -11 1 -42 7 -70 15 -57 15 -230 13 -284
-4 -19 -6 -37 -9 -39 -6 -5 5 94 33 133 37 54 5 143 -1 212 -16z m203 -22 c0
-2 -9 0 -20 6 -11 6 -20 13 -20 16 0 2 9 0 20 -6 11 -6 20 -13 20 -16z m-560
-8 c0 -2 -7 -7 -16 -10 -8 -3 -12 -2 -9 4 6 10 25 14 25 6z m282 -15 c13 -5
43 -14 68 -21 55 -15 119 -41 126 -51 2 -4 -8 -3 -23 2 -16 4 -68 22 -118 38
-110 36 -214 37 -309 2 -33 -11 -55 -16 -48 -9 6 6 17 13 24 14 7 2 36 10 63
18 57 16 183 20 217 7z m-368 -29 c-11 -9 -35 -28 -53 -41 -37 -28 -127 -148
-146 -195 -29 -71 -24 -77 12 -17 39 65 149 188 159 178 3 -3 26 5 51 18 64
34 149 49 241 41 129 -11 163 -16 180 -26 12 -7 7 -8 -18 -4 -33 5 -32 4 15
-19 28 -13 61 -34 75 -47 14 -12 37 -33 52 -45 32 -27 69 -93 103 -180 18 -50
22 -79 21 -155 -1 -90 -4 -99 -43 -180 -41 -81 -113 -171 -157 -197 -110 -62
-177 -84 -253 -84 -86 0 -96 1 -112 14 -12 9 -13 9 -7 0 4 -8 1 -13 -9 -13 -9
0 -13 5 -10 10 3 6 1 10 -5 10 -7 0 -42 14 -79 32 -63 30 -191 141 -191 166 0
6 -13 19 -29 28 -16 10 -32 25 -34 33 -3 9 -15 43 -27 76 -12 33 -24 76 -26
95 -2 19 -6 50 -9 68 -4 20 -2 39 6 48 8 10 8 14 0 14 -8 0 -8 6 1 20 20 31
25 24 24 -35 -1 -30 2 -55 7 -55 4 0 7 6 8 13 5 140 24 195 98 292 49 66 81
97 124 123 15 9 27 20 27 24 0 4 6 8 13 8 6 -1 3 -8 -9 -18z m736 -13 c0 -6
-4 -7 -10 -4 -5 3 -10 11 -10 16 0 6 5 7 10 4 6 -3 10 -11 10 -16z m-700 -13
c0 -3 -15 -14 -32 -26 l-33 -22 30 26 c31 27 35 29 35 22z m574 -55 c-2 -3
-12 3 -22 13 -16 17 -16 18 5 5 12 -7 20 -15 17 -18z m122 -22 c19 -22 19 -22
-3 -8 -13 8 -23 17 -23 21 0 12 6 9 26 -13z m-38 -50 c18 -16 30 -34 27 -39
-3 -5 -1 -12 5 -15 17 -11 68 -118 76 -161 9 -54 -2 -40 -29 37 -23 66 -66
149 -77 149 -3 0 -16 14 -28 30 -29 38 -16 38 26 -1z m-1002 -56 c-8 -15 -15
-22 -16 -15 0 17 20 55 27 49 2 -3 -2 -18 -11 -34z m992 -25 c35 -53 74 -146
63 -153 -5 -2 -19 23 -31 58 -13 34 -34 79 -47 99 -32 52 -21 48 15 -4z m-934
-15 c-4 -16 -10 -32 -15 -37 -5 -5 -4 6 1 25 6 18 10 35 10 36 0 2 2 3 5 3 3
0 2 -12 -1 -27z m-70 -40 c-3 -21 -6 -44 -7 -50 0 -7 -6 -13 -12 -13 -14 0
-12 23 5 68 16 42 20 41 14 -5z m-62 -165 c2 -31 0 -54 -4 -52 -13 9 -20 67
-12 112 9 50 11 41 16 -60z m53 -32 c0 -46 3 -82 7 -80 4 3 5 -1 2 -9 -6 -17
58 -149 86 -177 11 -11 16 -20 12 -20 -5 0 -16 8 -24 18 -17 18 -99 168 -97
177 1 7 -11 63 -18 89 -3 12 -1 16 6 12 7 -5 11 6 11 33 0 23 3 41 8 41 4 0 7
-38 7 -84z m1085 -28 c0 -101 -21 -208 -42 -208 -6 0 -7 7 -3 18 28 64 33 95
31 193 -1 59 2 105 6 103 5 -3 8 -50 8 -106z m63 85 c8 -28 6 -156 -1 -148 -4
4 -8 34 -8 68 -1 34 -5 70 -9 80 -4 10 -3 17 3 17 6 0 13 -8 15 -17z m-1124
-295 c38 -62 91 -121 152 -168 24 -18 49 -38 54 -42 18 -16 -29 4 -60 26 -35
23 -145 136 -145 147 0 4 -6 14 -12 21 -33 34 -59 101 -64 160 l-4 63 23 -77
c13 -42 38 -100 56 -130z m1006 -38 c-9 -16 -18 -30 -21 -30 -2 0 2 14 11 30
9 17 18 30 21 30 2 0 -2 -13 -11 -30z m95 16 c0 -3 -4 -8 -10 -11 -5 -3 -10
-1 -10 4 0 6 5 11 10 11 6 0 10 -2 10 -4z m-1150 -61 c0 -11 -14 7 -31 40 -7
13 -3 12 10 -5 11 -14 21 -29 21 -35z m960 3 c-48 -63 -133 -128 -186 -144
-71 -21 -76 -16 -11 10 32 14 77 37 99 52 43 30 118 111 118 127 0 6 3 7 6 4
4 -4 -8 -26 -26 -49z m52 -25 c-26 -36 -72 -79 -72 -68 0 9 80 95 88 95 2 0
-6 -12 -16 -27z m-692 -63 c8 -5 11 -10 5 -10 -5 0 -17 5 -25 10 -8 5 -10 10
-5 10 6 0 17 -5 25 -10z m115 -52 c5 -5 -6 -3 -25 3 -19 6 -39 16 -45 21 -5 5
6 3 25 -3 19 -6 39 -16 45 -21z m495 28 c0 -6 -88 -58 -124 -73 -48 -22 -44
-14 10 15 27 16 61 36 74 45 23 16 40 22 40 13z m-749 -63 c10 -12 5 -11 -18
6 -18 12 -33 24 -33 27 0 9 37 -15 51 -33z m435 -21 c-7 -12 -146 -16 -146 -4
0 5 24 8 53 7 28 -1 61 1 72 5 22 9 30 6 21 -8z m-248 -44 c18 -5 31 -12 29
-14 -6 -6 -110 18 -122 28 -11 9 42 2 93 -14z m125 -28 c13 -12 -47 -4 -69 8
-15 9 -11 10 21 5 22 -3 44 -9 48 -13z m80 -17 c-7 -2 -19 -2 -25 0 -7 3 -2 5
12 5 14 0 19 -2 13 -5z"/>
<path d="M1020 2302 c0 -5 7 -9 15 -9 8 0 12 4 9 9 -3 4 -9 8 -15 8 -5 0 -9
-4 -9 -8z"/>
<path d="M1960 2281 c0 -8 70 -35 76 -28 2 2 -14 11 -36 20 -22 8 -40 12 -40
8z"/>
<path d="M840 2221 c0 -6 4 -13 10 -16 6 -3 7 1 4 9 -7 18 -14 21 -14 7z"/>
<path d="M830 2190 c0 -5 5 -10 11 -10 5 0 7 5 4 10 -3 6 -8 10 -11 10 -2 0
-4 -4 -4 -10z"/>
<path d="M784 2142 c-16 -10 -46 -72 -36 -72 5 0 18 18 31 40 23 41 24 45 5
32z"/>
<path d="M690 1985 c-12 -26 -19 -49 -16 -53 3 -3 15 16 27 42 11 26 18 50 16
53 -3 3 -15 -16 -27 -42z"/>
<path d="M688 1911 c-26 -48 -60 -133 -78 -196 -16 -56 -23 -120 -25 -235 -1
-96 2 -127 21 -185 22 -68 44 -122 64 -157 6 -10 14 -26 20 -35 5 -10 19 -36
30 -59 19 -37 100 -128 100 -111 0 4 30 -24 68 -61 100 -102 264 -182 405
-199 226 -27 445 21 608 132 83 56 182 159 204 210 8 22 19 42 23 45 14 10 65
123 67 149 1 14 7 43 13 64 6 21 7 37 1 37 -5 0 -9 -6 -9 -14 0 -7 -9 -20 -20
-27 -20 -14 -40 -77 -21 -65 9 6 -20 -92 -43 -143 -6 -13 -20 -27 -32 -31 -12
-5 -30 -19 -40 -32 -32 -39 -155 -133 -219 -166 -127 -66 -229 -88 -401 -86
-99 1 -161 11 -244 42 -8 3 -24 7 -35 9 -58 11 -278 154 -330 215 -81 93 -106
128 -121 163 l-16 40 23 -25 c13 -14 33 -39 43 -55 12 -18 21 -25 24 -17 2 7
-1 19 -7 26 -6 7 -29 50 -51 95 -22 44 -42 81 -44 81 -2 0 -2 -19 0 -42 3 -34
1 -39 -7 -25 -6 10 -11 39 -12 65 -1 26 -6 50 -11 53 -13 10 -9 152 7 237 8
44 10 75 4 79 -5 3 -3 9 4 14 11 7 11 9 1 9 -9 0 -10 5 -2 19 5 11 10 31 10
44 0 14 7 27 15 31 16 6 16 26 0 38 -6 5 -5 8 3 8 7 0 10 5 7 10 -3 6 -1 10 5
10 6 0 8 5 5 10 -4 6 -1 17 5 25 7 8 9 15 4 15 -5 0 -3 4 5 9 7 5 12 14 10 20
-3 7 -17 -10 -31 -38z m1502 -655 c0 -3 -4 -8 -10 -11 -5 -3 -10 -1 -10 4 0 6
5 11 10 11 6 0 10 -2 10 -4z"/>
<path d="M2395 1650 c3 -5 8 -10 11 -10 2 0 4 5 4 10 0 6 -5 10 -11 10 -5 0
-7 -4 -4 -10z"/>
<path d="M2291 1405 c-11 -47 -11 -69 -1 -59 6 6 10 24 7 40 -2 16 -5 25 -6
19z"/>
<path d="M2165 1360 c-3 -5 -1 -10 4 -10 6 0 11 5 11 10 0 6 -2 10 -4 10 -3 0
-8 -4 -11 -10z"/>
<path d="M2180 1320 c0 -11 2 -20 4 -20 2 0 6 9 9 20 3 11 1 20 -4 20 -5 0 -9
-9 -9 -20z"/>
<path d="M2270 1319 c0 -5 5 -7 10 -4 6 3 10 8 10 11 0 2 -4 4 -10 4 -5 0 -10
-5 -10 -11z"/>
<path d="M2261 1260 c-5 -16 -7 -30 -4 -30 3 0 0 -7 -7 -15 -11 -13 -10 -14 4
-9 9 3 17 11 17 18 1 6 3 23 5 39 4 35 -1 34 -15 -3z"/>
<path d="M2317 1256 c-4 -10 -5 -21 -2 -24 9 -9 17 6 13 25 -3 17 -4 17 -11
-1z"/>
<path d="M2284 1196 c-1 -34 -1 -34 17 -13 12 16 14 26 7 35 -17 20 -23 14
-24 -22z"/>
<path d="M2213 1151 c-15 -21 -32 -38 -37 -37 -5 1 -10 -8 -11 -19 -1 -11 -16
-42 -33 -70 -18 -27 -39 -65 -47 -82 -8 -18 -19 -33 -25 -33 -5 0 -30 -18 -56
-41 -92 -80 -250 -183 -271 -177 -5 1 -30 -5 -58 -14 -27 -9 -66 -20 -85 -23
-19 -4 -39 -11 -45 -15 -16 -13 -155 -17 -155 -5 0 7 -27 12 -62 12 -119 3
-180 10 -186 20 -6 9 -91 38 -100 34 -7 -3 -68 34 -79 48 -11 14 -12 14 -13
-1 0 -20 -20 -25 -20 -5 0 6 -12 17 -26 24 -22 10 -25 10 -20 -3 3 -9 6 -21 6
-26 0 -6 3 -9 6 -5 3 3 24 -6 47 -20 35 -22 39 -23 33 -7 -6 18 -5 18 8 2 7
-10 18 -18 25 -18 6 0 11 -7 11 -15 0 -8 12 -17 28 -21 15 -3 38 -10 52 -15
14 -4 36 -10 50 -13 14 -2 50 -10 80 -17 57 -14 326 -18 390 -7 175 31 340
109 447 211 39 38 80 86 90 106 10 20 20 38 24 41 14 13 47 78 53 105 6 28 5
29 -9 11 -8 -11 -15 -25 -15 -32 0 -7 -4 -16 -10 -19 -6 -4 -10 5 -10 20 0 14
4 24 8 21 5 -3 20 24 35 59 14 36 22 65 17 65 -5 0 -21 -17 -37 -39z m-1158
-481 c3 -5 2 -10 -4 -10 -5 0 -13 5 -16 10 -3 6 -2 10 4 10 5 0 13 -4 16 -10z
m65 -4 c0 -3 -4 -8 -10 -11 -5 -3 -10 -1 -10 4 0 6 5 11 10 11 6 0 10 -2 10
-4z"/>
<path d="M2315 1049 c-4 -6 -5 -12 -2 -15 2 -3 7 2 10 11 7 17 1 20 -8 4z"/>
<path d="M2282 1033 c-6 -2 -10 -9 -7 -13 6 -10 -16 -50 -27 -50 -4 0 -5 7 -2
15 4 8 1 15 -5 15 -6 0 -11 -9 -11 -21 0 -23 -91 -149 -139 -192 -17 -15 -31
-31 -31 -35 0 -4 -23 -18 -50 -31 -55 -26 -78 -48 -39 -36 23 7 24 7 4 -9 -11
-8 -27 -16 -37 -16 -9 0 -18 -5 -20 -11 -2 -5 -10 -11 -18 -13 -29 -5 -90 -30
-90 -37 0 -4 13 -4 29 1 16 4 32 6 34 3 8 -7 64 24 137 75 83 58 180 156 216
218 32 58 54 85 63 80 3 -2 7 11 7 30 0 19 0 34 0 33 -1 0 -7 -3 -14 -6z"/>
<path d="M680 922 c0 -5 9 -17 20 -27 11 -10 20 -15 20 -12 0 4 -9 16 -20 27
-11 11 -20 16 -20 12z"/>
<path d="M856 801 c-4 -7 -5 -15 -2 -18 9 -9 19 4 14 18 -4 11 -6 11 -12 0z"/>
<path d="M1650 560 c-12 -8 -9 -10 13 -10 16 0 26 4 22 10 -8 12 -16 12 -35 0z"/>
</g>
</svg>
